<svg width="245" height="123" viewBox="0 0 245 123" fill="none" xmlns="http://www.w3.org/2000/svg">
<path d="M65.9091 38.4545L70.6591 72.5455H71.0455L87.1136 38.4545H99.7045L76.2727 85H61.2955L53.3182 38.4545H65.9091ZM104.716 38.4545H118.648L125.693 67.2727H126.239L142.83 38.4545H156.761L149.034 85H138.08L142.83 56.4091H142.443L126.58 84.7045H119.602L113.148 56.25H112.761L107.943 85H96.9886L104.716 38.4545ZM186.574 52.5C186.695 50.7879 186.241 49.4621 185.21 48.5227C184.195 47.5833 182.589 47.1136 180.392 47.1136C178.938 47.1136 177.695 47.303 176.665 47.6818C175.634 48.0455 174.824 48.5606 174.233 49.2273C173.642 49.8788 173.271 50.6364 173.119 51.5C172.983 52.1818 173.021 52.7879 173.233 53.3182C173.445 53.8485 173.816 54.3182 174.347 54.7273C174.892 55.1364 175.566 55.4924 176.369 55.7955C177.188 56.0985 178.104 56.3636 179.119 56.5909L182.938 57.5C185.15 58 187.066 58.6667 188.688 59.5C190.324 60.3182 191.65 61.3106 192.665 62.4773C193.68 63.6288 194.377 64.9545 194.756 66.4545C195.134 67.9545 195.165 69.6364 194.847 71.5C194.362 74.4394 193.203 76.9621 191.369 79.0682C189.551 81.1742 187.172 82.7879 184.233 83.9091C181.309 85.0303 177.907 85.5909 174.028 85.5909C170.15 85.5909 166.854 85.0076 164.142 83.8409C161.445 82.6591 159.491 80.8788 158.278 78.5C157.066 76.1212 156.741 73.1212 157.301 69.5H168.051C167.884 71 168.074 72.25 168.619 73.25C169.18 74.25 170.044 75.0076 171.21 75.5227C172.377 76.0379 173.786 76.2955 175.438 76.2955C176.953 76.2955 178.278 76.0909 179.415 75.6818C180.566 75.2727 181.483 74.7045 182.165 73.9773C182.862 73.25 183.286 72.4167 183.438 71.4773C183.589 70.6136 183.445 69.8636 183.006 69.2273C182.581 68.5909 181.854 68.0379 180.824 67.5682C179.809 67.0985 178.475 66.6742 176.824 66.2955L172.165 65.1591C168.316 64.2197 165.4 62.7197 163.415 60.6591C161.445 58.5985 160.748 55.803 161.324 52.2727C161.809 49.3788 163.006 46.8485 164.915 44.6818C166.839 42.5151 169.271 40.8333 172.21 39.6364C175.165 38.4242 178.415 37.8182 181.96 37.8182C185.566 37.8182 188.597 38.4318 191.051 39.6591C193.521 40.8712 195.301 42.5833 196.392 44.7955C197.498 46.9924 197.816 49.5606 197.347 52.5H186.574Z" fill="#005CDD"/>
</svg>
